<?xml version="1.0" encoding="UTF-8"?>
<svg viewBox="0 0 2500 2500" xmlns="http://www.w3.org/2000/svg">
<path d="M0 0H2500V2500H0V0Z"/>
<path d="m657.34 2089.2 191.31-115.78c36.914 65.44 70.489 120.81 151.03 120.81 77.202 0 125.88-30.2 125.88-147.66v-798.81h234.93v802.13c0 243.33-142.64 354.09-350.74 354.09-187.94 0-297.04-97.33-352.42-214.8l0.01 0.02zm830.76-25.18 191.28-110.75c50.37 82.24 115.82 142.65 231.6 142.65 97.35 0 159.42-48.67 159.42-115.8 0-80.55-63.77-109.08-171.17-156.06l-58.72-25.19c-169.5-72.14-281.94-162.77-281.94-354.07 0-176.22 134.25-310.47 344.03-310.47 149.35 0 256.76 52.03 333.94 187.96l-182.93 117.48c-40.28-72.16-83.89-100.69-151.02-100.69-68.81 0-112.44 43.64-112.44 100.69 0 70.47 43.63 99.02 144.31 142.65l58.73 25.17c199.71 85.59 312.14 172.85 312.14 369.18 0 211.46-166.13 327.24-389.32 327.24-218.16 0-359.13-104.04-427.92-239.98" fill="#fff"/>
</svg>
