<svg width="200" height="36" viewBox="0 0 200 36" fill="none" xmlns="http://www.w3.org/2000/svg">
<rect width="200" height="36" fill="black"/>
<path d="M20.528 23.144C19.8 23.144 19.188 23.016 18.692 22.76C18.196 22.504 17.788 22.164 17.468 21.74L18.332 20.912C18.652 21.296 18.992 21.58 19.352 21.764C19.712 21.94 20.12 22.028 20.576 22.028C21.104 22.028 21.508 21.908 21.788 21.668C22.076 21.428 22.22 21.084 22.22 20.636C22.22 20.276 22.116 20 21.908 19.808C21.7 19.608 21.344 19.464 20.84 19.376L19.928 19.232C19.528 19.168 19.192 19.064 18.92 18.92C18.648 18.768 18.428 18.592 18.26 18.392C18.092 18.184 17.968 17.956 17.888 17.708C17.816 17.452 17.78 17.184 17.78 16.904C17.78 16.112 18.036 15.512 18.548 15.104C19.06 14.688 19.764 14.48 20.66 14.48C21.324 14.48 21.888 14.588 22.352 14.804C22.824 15.012 23.204 15.308 23.492 15.692L22.652 16.532C22.42 16.252 22.144 16.028 21.824 15.86C21.512 15.684 21.124 15.596 20.66 15.596C20.164 15.596 19.784 15.704 19.52 15.92C19.264 16.128 19.136 16.436 19.136 16.844C19.136 17.188 19.236 17.46 19.436 17.66C19.644 17.852 20.008 17.992 20.528 18.08L21.416 18.236C22.168 18.372 22.716 18.648 23.06 19.064C23.404 19.472 23.576 19.972 23.576 20.564C23.576 20.948 23.508 21.3 23.372 21.62C23.244 21.94 23.048 22.212 22.784 22.436C22.528 22.66 22.208 22.836 21.824 22.964C21.448 23.084 21.016 23.144 20.528 23.144ZM28.1673 23C27.6233 23 27.2233 22.856 26.9673 22.568C26.7113 22.272 26.5833 21.892 26.5833 21.428V17.864H24.6753V16.808H26.0313C26.2633 16.808 26.4273 16.764 26.5233 16.676C26.6193 16.58 26.6673 16.412 26.6673 16.172V14.624H27.8913V16.808H30.5313V17.864H27.8913V21.944H30.5313V23H28.1673ZM37.2946 23C36.9186 23 36.6346 22.904 36.4426 22.712C36.2586 22.52 36.1466 22.268 36.1066 21.956H36.0466C35.9266 22.332 35.7066 22.624 35.3866 22.832C35.0746 23.04 34.6746 23.144 34.1866 23.144C33.5546 23.144 33.0506 22.98 32.6746 22.652C32.2986 22.316 32.1106 21.856 32.1106 21.272C32.1106 20.672 32.3306 20.216 32.7706 19.904C33.2186 19.584 33.9026 19.424 34.8226 19.424H36.0106V18.944C36.0106 18.104 35.5666 17.684 34.6786 17.684C34.2786 17.684 33.9546 17.764 33.7066 17.924C33.4586 18.076 33.2506 18.28 33.0826 18.536L32.3026 17.9C32.4786 17.564 32.7746 17.276 33.1906 17.036C33.6066 16.788 34.1426 16.664 34.7986 16.664C35.5826 16.664 36.1986 16.852 36.6466 17.228C37.0946 17.604 37.3186 18.148 37.3186 18.86V21.968H38.0986V23H37.2946ZM34.5586 22.184C34.9826 22.184 35.3306 22.088 35.6026 21.896C35.8746 21.704 36.0106 21.456 36.0106 21.152V20.252H34.8466C33.9026 20.252 33.4306 20.536 33.4306 21.104V21.344C33.4306 21.624 33.5306 21.836 33.7306 21.98C33.9306 22.116 34.2066 22.184 34.5586 22.184ZM39.4979 21.944H41.1419V17.864H39.4979V16.808H42.4499V18.452H42.5219C42.5779 18.236 42.6579 18.028 42.7619 17.828C42.8659 17.628 42.9979 17.456 43.1579 17.312C43.3179 17.16 43.5139 17.04 43.7459 16.952C43.9779 16.856 44.2499 16.808 44.5619 16.808H45.3059V18.056H44.0819C43.6019 18.056 43.2099 18.2 42.9059 18.488C42.6019 18.768 42.4499 19.148 42.4499 19.628V21.944H44.6939V23H39.4979V21.944ZM49.7533 23C49.2093 23 48.8093 22.856 48.5533 22.568C48.2973 22.272 48.1693 21.892 48.1693 21.428V17.864H46.2613V16.808H47.6173C47.8493 16.808 48.0133 16.764 48.1093 16.676C48.2053 16.58 48.2533 16.412 48.2533 16.172V14.624H49.4773V16.808H52.1172V17.864H49.4773V21.944H52.1172V23H49.7533ZM61.0719 21.944H63.1239V15.176H61.0719V14.12H64.4319V21.944H66.4839V23H61.0719V21.944ZM71.0992 23.144C70.6272 23.144 70.2032 23.068 69.8272 22.916C69.4512 22.764 69.1352 22.548 68.8792 22.268C68.6232 21.988 68.4272 21.652 68.2912 21.26C68.1552 20.86 68.0872 20.412 68.0872 19.916C68.0872 19.42 68.1552 18.972 68.2912 18.572C68.4352 18.172 68.6312 17.832 68.8792 17.552C69.1352 17.264 69.4432 17.044 69.8032 16.892C70.1632 16.74 70.5632 16.664 71.0032 16.664C71.4352 16.664 71.8272 16.74 72.1792 16.892C72.5312 17.036 72.8312 17.244 73.0792 17.516C73.3272 17.788 73.5152 18.112 73.6432 18.488C73.7792 18.864 73.8472 19.28 73.8472 19.736V20.228H69.4072V20.432C69.4072 20.92 69.5592 21.32 69.8632 21.632C70.1672 21.936 70.5872 22.088 71.1232 22.088C71.5232 22.088 71.8632 22.004 72.1432 21.836C72.4312 21.66 72.6632 21.428 72.8392 21.14L73.6552 21.86C73.4472 22.22 73.1272 22.524 72.6952 22.772C72.2712 23.02 71.7392 23.144 71.0992 23.144ZM71.0032 17.66C70.7712 17.66 70.5552 17.7 70.3552 17.78C70.1632 17.86 69.9952 17.976 69.8512 18.128C69.7152 18.272 69.6072 18.444 69.5272 18.644C69.4472 18.844 69.4072 19.064 69.4072 19.304V19.388H72.5152V19.268C72.5152 18.78 72.3752 18.392 72.0952 18.104C71.8232 17.808 71.4592 17.66 71.0032 17.66ZM80.4665 23C80.0905 23 79.8065 22.904 79.6145 22.712C79.4305 22.52 79.3185 22.268 79.2785 21.956H79.2185C79.0985 22.332 78.8785 22.624 78.5585 22.832C78.2465 23.04 77.8465 23.144 77.3585 23.144C76.7265 23.144 76.2225 22.98 75.8465 22.652C75.4705 22.316 75.2825 21.856 75.2825 21.272C75.2825 20.672 75.5025 20.216 75.9425 19.904C76.3905 19.584 77.0745 19.424 77.9945 19.424H79.1825V18.944C79.1825 18.104 78.7385 17.684 77.8505 17.684C77.4505 17.684 77.1265 17.764 76.8785 17.924C76.6305 18.076 76.4225 18.28 76.2545 18.536L75.4745 17.9C75.6505 17.564 75.9465 17.276 76.3625 17.036C76.7785 16.788 77.3145 16.664 77.9705 16.664C78.7545 16.664 79.3705 16.852 79.8185 17.228C80.2665 17.604 80.4905 18.148 80.4905 18.86V21.968H81.2705V23H80.4665ZM77.7305 22.184C78.1545 22.184 78.5025 22.088 78.7745 21.896C79.0465 21.704 79.1825 21.456 79.1825 21.152V20.252H78.0185C77.0745 20.252 76.6025 20.536 76.6025 21.104V21.344C76.6025 21.624 76.7025 21.836 76.9025 21.98C77.1025 22.116 77.3785 22.184 77.7305 22.184ZM82.6698 21.944H84.3138V17.864H82.6698V16.808H85.6218V18.452H85.6938C85.7498 18.236 85.8298 18.028 85.9338 17.828C86.0378 17.628 86.1698 17.456 86.3298 17.312C86.4898 17.16 86.6858 17.04 86.9178 16.952C87.1498 16.856 87.4218 16.808 87.7338 16.808H88.4778V18.056H87.2538C86.7738 18.056 86.3818 18.2 86.0778 18.488C85.7738 18.768 85.6218 19.148 85.6218 19.628V21.944H87.8658V23H82.6698V21.944ZM89.9611 23V16.808H91.2691V17.864H91.3291C91.3931 17.704 91.4731 17.552 91.5691 17.408C91.6731 17.256 91.7971 17.128 91.9411 17.024C92.0851 16.912 92.2531 16.824 92.4451 16.76C92.6371 16.696 92.8611 16.664 93.1171 16.664C93.7411 16.664 94.2451 16.868 94.6291 17.276C95.0131 17.684 95.2051 18.264 95.2051 19.016V23H93.8971V19.208C93.8971 18.224 93.4691 17.732 92.6131 17.732C92.4451 17.732 92.2811 17.756 92.1211 17.804C91.9611 17.844 91.8171 17.908 91.6891 17.996C91.5611 18.084 91.4571 18.196 91.3771 18.332C91.3051 18.468 91.2691 18.624 91.2691 18.8V23H89.9611ZM100.132 15.68C99.7964 15.68 99.5604 15.612 99.4244 15.476C99.2964 15.34 99.2324 15.172 99.2324 14.972V14.72C99.2324 14.52 99.2964 14.352 99.4244 14.216C99.5604 14.08 99.7924 14.012 100.12 14.012C100.456 14.012 100.688 14.08 100.816 14.216C100.952 14.352 101.02 14.52 101.02 14.72V14.972C101.02 15.172 100.952 15.34 100.816 15.476C100.688 15.612 100.46 15.68 100.132 15.68ZM97.3604 21.944H99.4724V17.864H97.3604V16.808H100.78V21.944H102.76V23H97.3604V21.944ZM104.352 23V16.808H105.66V17.864H105.72C105.784 17.704 105.864 17.552 105.96 17.408C106.064 17.256 106.188 17.128 106.332 17.024C106.476 16.912 106.644 16.824 106.836 16.76C107.028 16.696 107.252 16.664 107.508 16.664C108.132 16.664 108.636 16.868 109.02 17.276C109.404 17.684 109.596 18.264 109.596 19.016V23H108.288V19.208C108.288 18.224 107.86 17.732 107.004 17.732C106.836 17.732 106.672 17.756 106.512 17.804C106.352 17.844 106.208 17.908 106.08 17.996C105.952 18.084 105.848 18.196 105.768 18.332C105.696 18.468 105.66 18.624 105.66 18.8V23H104.352ZM117.379 23.672C117.379 24.312 117.111 24.784 116.575 25.088C116.039 25.392 115.223 25.544 114.127 25.544C113.591 25.544 113.139 25.508 112.771 25.436C112.411 25.372 112.115 25.276 111.883 25.148C111.659 25.02 111.495 24.864 111.391 24.68C111.295 24.496 111.247 24.288 111.247 24.056C111.247 23.72 111.339 23.456 111.523 23.264C111.715 23.08 111.983 22.944 112.327 22.856V22.736C112.119 22.656 111.951 22.544 111.823 22.4C111.703 22.256 111.643 22.068 111.643 21.836C111.643 21.532 111.747 21.304 111.955 21.152C112.163 20.992 112.431 20.872 112.759 20.792V20.732C112.383 20.556 112.091 20.308 111.883 19.988C111.675 19.668 111.571 19.284 111.571 18.836C111.571 18.508 111.631 18.212 111.751 17.948C111.871 17.676 112.039 17.448 112.255 17.264C112.479 17.072 112.743 16.924 113.047 16.82C113.359 16.716 113.707 16.664 114.091 16.664C114.523 16.664 114.911 16.732 115.255 16.868V16.664C115.255 16.424 115.323 16.224 115.459 16.064C115.595 15.904 115.803 15.824 116.083 15.824H117.211V16.856H115.771V17.144C116.043 17.328 116.251 17.564 116.395 17.852C116.539 18.132 116.611 18.46 116.611 18.836C116.611 19.164 116.551 19.464 116.431 19.736C116.311 20 116.139 20.228 115.915 20.42C115.699 20.604 115.435 20.748 115.123 20.852C114.819 20.948 114.475 20.996 114.091 20.996C113.819 20.996 113.563 20.972 113.323 20.924C113.179 20.964 113.035 21.032 112.891 21.128C112.747 21.224 112.675 21.356 112.675 21.524C112.675 21.716 112.767 21.836 112.951 21.884C113.135 21.932 113.363 21.956 113.635 21.956H115.027C115.859 21.956 116.459 22.116 116.827 22.436C117.195 22.748 117.379 23.16 117.379 23.672ZM116.155 23.756C116.155 23.548 116.071 23.38 115.903 23.252C115.735 23.132 115.431 23.072 114.991 23.072H112.843C112.539 23.216 112.387 23.448 112.387 23.768C112.387 24 112.483 24.2 112.675 24.368C112.875 24.536 113.203 24.62 113.659 24.62H114.631C115.127 24.62 115.503 24.544 115.759 24.392C116.023 24.248 116.155 24.036 116.155 23.756ZM114.091 20.096C114.515 20.096 114.827 19.996 115.027 19.796C115.227 19.596 115.327 19.328 115.327 18.992V18.668C115.327 18.332 115.227 18.064 115.027 17.864C114.827 17.664 114.515 17.564 114.091 17.564C113.667 17.564 113.355 17.664 113.155 17.864C112.955 18.064 112.855 18.332 112.855 18.668V18.992C112.855 19.328 112.955 19.596 113.155 19.796C113.355 19.996 113.667 20.096 114.091 20.096ZM125.866 21.944H127.846V17.864H125.746V16.808H127.846V15.692C127.846 15.228 127.974 14.852 128.23 14.564C128.486 14.268 128.886 14.12 129.43 14.12H131.518V15.176H129.154V16.808H131.518V17.864H129.154V21.944H131.242V23H125.866V21.944ZM135.725 23.144C135.269 23.144 134.857 23.068 134.489 22.916C134.129 22.764 133.821 22.548 133.565 22.268C133.317 21.988 133.125 21.648 132.989 21.248C132.853 20.848 132.785 20.4 132.785 19.904C132.785 19.408 132.853 18.96 132.989 18.56C133.125 18.16 133.317 17.82 133.565 17.54C133.821 17.26 134.129 17.044 134.489 16.892C134.857 16.74 135.269 16.664 135.725 16.664C136.181 16.664 136.589 16.74 136.949 16.892C137.317 17.044 137.625 17.26 137.873 17.54C138.129 17.82 138.325 18.16 138.461 18.56C138.597 18.96 138.665 19.408 138.665 19.904C138.665 20.4 138.597 20.848 138.461 21.248C138.325 21.648 138.129 21.988 137.873 22.268C137.625 22.548 137.317 22.764 136.949 22.916C136.589 23.068 136.181 23.144 135.725 23.144ZM135.725 22.112C136.205 22.112 136.585 21.968 136.865 21.68C137.153 21.384 137.297 20.948 137.297 20.372V19.436C137.297 18.86 137.153 18.428 136.865 18.14C136.585 17.844 136.205 17.696 135.725 17.696C135.245 17.696 134.861 17.844 134.573 18.14C134.293 18.428 134.153 18.86 134.153 19.436V20.372C134.153 20.948 134.293 21.384 134.573 21.68C134.861 21.968 135.245 22.112 135.725 22.112ZM140.232 21.944H141.876V17.864H140.232V16.808H143.184V18.452H143.256C143.312 18.236 143.392 18.028 143.496 17.828C143.6 17.628 143.732 17.456 143.892 17.312C144.052 17.16 144.248 17.04 144.48 16.952C144.712 16.856 144.984 16.808 145.296 16.808H146.04V18.056H144.816C144.336 18.056 143.944 18.2 143.64 18.488C143.336 18.768 143.184 19.148 143.184 19.628V21.944H145.428V23H140.232V21.944ZM154.647 21.944H156.627V17.864H154.527V16.808H156.627V15.692C156.627 15.228 156.755 14.852 157.011 14.564C157.267 14.268 157.667 14.12 158.211 14.12H160.299V15.176H157.935V16.808H160.299V17.864H157.935V21.944H160.023V23H154.647V21.944ZM161.818 21.944H163.462V17.864H161.818V16.808H164.77V18.452H164.842C164.898 18.236 164.978 18.028 165.082 17.828C165.186 17.628 165.318 17.456 165.478 17.312C165.638 17.16 165.834 17.04 166.066 16.952C166.298 16.856 166.57 16.808 166.882 16.808H167.626V18.056H166.402C165.922 18.056 165.53 18.2 165.226 18.488C164.922 18.768 164.77 19.148 164.77 19.628V21.944H167.014V23H161.818V21.944ZM171.834 23.144C171.362 23.144 170.938 23.068 170.562 22.916C170.186 22.764 169.87 22.548 169.614 22.268C169.358 21.988 169.162 21.652 169.026 21.26C168.89 20.86 168.822 20.412 168.822 19.916C168.822 19.42 168.89 18.972 169.026 18.572C169.17 18.172 169.366 17.832 169.614 17.552C169.87 17.264 170.178 17.044 170.538 16.892C170.898 16.74 171.298 16.664 171.738 16.664C172.17 16.664 172.562 16.74 172.914 16.892C173.266 17.036 173.566 17.244 173.814 17.516C174.062 17.788 174.25 18.112 174.378 18.488C174.514 18.864 174.582 19.28 174.582 19.736V20.228H170.142V20.432C170.142 20.92 170.294 21.32 170.598 21.632C170.902 21.936 171.322 22.088 171.858 22.088C172.258 22.088 172.598 22.004 172.878 21.836C173.166 21.66 173.398 21.428 173.574 21.14L174.39 21.86C174.182 22.22 173.862 22.524 173.43 22.772C173.006 23.02 172.474 23.144 171.834 23.144ZM171.738 17.66C171.506 17.66 171.29 17.7 171.09 17.78C170.898 17.86 170.73 17.976 170.586 18.128C170.45 18.272 170.342 18.444 170.262 18.644C170.182 18.844 170.142 19.064 170.142 19.304V19.388H173.25V19.268C173.25 18.78 173.11 18.392 172.83 18.104C172.558 17.808 172.194 17.66 171.738 17.66ZM179.029 23.144C178.557 23.144 178.133 23.068 177.757 22.916C177.381 22.764 177.065 22.548 176.809 22.268C176.553 21.988 176.357 21.652 176.221 21.26C176.085 20.86 176.017 20.412 176.017 19.916C176.017 19.42 176.085 18.972 176.221 18.572C176.365 18.172 176.561 17.832 176.809 17.552C177.065 17.264 177.373 17.044 177.733 16.892C178.093 16.74 178.493 16.664 178.933 16.664C179.365 16.664 179.757 16.74 180.109 16.892C180.461 17.036 180.761 17.244 181.009 17.516C181.257 17.788 181.445 18.112 181.573 18.488C181.709 18.864 181.777 19.28 181.777 19.736V20.228H177.337V20.432C177.337 20.92 177.489 21.32 177.793 21.632C178.097 21.936 178.517 22.088 179.053 22.088C179.453 22.088 179.793 22.004 180.073 21.836C180.361 21.66 180.593 21.428 180.769 21.14L181.585 21.86C181.377 22.22 181.057 22.524 180.625 22.772C180.201 23.02 179.669 23.144 179.029 23.144ZM178.933 17.66C178.701 17.66 178.485 17.7 178.285 17.78C178.093 17.86 177.925 17.976 177.781 18.128C177.645 18.272 177.537 18.444 177.457 18.644C177.377 18.844 177.337 19.064 177.337 19.304V19.388H180.445V19.268C180.445 18.78 180.305 18.392 180.025 18.104C179.753 17.808 179.389 17.66 178.933 17.66Z" fill="white"/>
</svg>
