<?xml version="1.0" encoding="UTF-8"?>
<svg fill="none" viewBox="0 0 2500 1533" xmlns="http://www.w3.org/2000/svg">
<g clip-path="url(#h)">
<path d="m1235.9 1528.6c-8.46 0-16.36-2.26-23.7-6.21l-75.04-44.57c-11.29-6.21-5.64-8.47-2.26-9.6 15.24-5.07 18.06-6.21 33.86-15.23 1.69-1.13 3.95-0.56 5.64 0.56l57.56 34.42c2.25 1.13 5.07 1.13 6.76 0l225.14-130.34c2.26-1.13 3.39-3.39 3.39-6.21v-260.12c0-2.83-1.13-5.08-3.39-6.21l-225.14-129.78c-2.25-1.132-5.07-1.132-6.76 0l-225.15 129.78c-2.25 1.13-3.38 3.95-3.38 6.21v260.12c0 2.26 1.13 5.08 3.38 6.21l61.51 35.55c33.29 16.92 54.17-2.83 54.17-22.57v-256.74c0-3.39 2.82-6.77 6.77-6.77h28.77c3.39 0 6.78 2.82 6.78 6.77v256.74c0 44.57-24.27 70.53-66.59 70.53-12.97 0-23.13 0-51.91-14.11l-59.244-33.85c-14.67-8.47-23.698-24.27-23.698-41.2v-260.12c0-16.92 9.028-32.73 23.698-41.19l225.13-130.34c14.11-7.9 33.3-7.9 47.4 0l225.14 130.34c14.67 8.46 23.7 24.27 23.7 41.19v260.12c0 16.93-9.03 32.73-23.7 41.2l-225.14 130.34c-7.33 3.39-15.8 5.08-23.69 5.08h-0.01zm69.41-178.87c-98.75 0-119.06-45.14-119.06-83.51 0-3.39 2.82-6.77 6.77-6.77h29.34c3.39 0 6.21 2.25 6.21 5.64 4.51 29.9 17.49 44.58 77.3 44.58 47.4 0 67.72-10.73 67.72-36.12 0-14.67-5.65-25.38-79.57-32.72-61.5-6.21-99.87-19.75-99.87-68.84 0-45.71 38.37-72.79 102.69-72.79 72.23 0 107.78 24.83 112.29 78.99 0 1.7-0.56 3.39-1.69 5.08-1.13 1.13-2.82 2.26-4.52 2.26h-29.34c-2.82 0-5.64-2.26-6.2-5.08-6.77-31.03-24.27-41.19-70.54-41.19-51.91 0-58.12 18.06-58.12 31.6 0 16.36 7.34 21.44 77.31 30.47 69.4 9.03 102.13 22 102.13 70.53-0.56 49.65-41.19 77.87-112.85 77.87z" fill="#000"/>
<path d="m537.34 511.22c0-10.155-5.644-19.754-14.671-24.831l-239.25-137.68c-3.955-2.261-8.466-3.388-12.977-3.955h-2.26c-4.511 0-9.027 1.694-12.977 3.955l-239.25 137.68c-9.032 5.077-14.671 14.671-14.671 24.831l0.56633 370.15c0 5.077 2.8219 10.155 7.333 12.415 4.516 2.822 10.155 2.822 14.11 0l142.19-81.254c9.027-5.077 14.671-14.671 14.671-24.826v-173.23c0-10.155 5.639-19.748 14.671-24.825l60.373-34.986c4.516-2.822 9.593-3.955 14.671-3.955 5.077 0 10.155 1.133 14.109 3.955l60.373 34.986c9.032 5.077 14.671 14.666 14.671 24.825v173.23c0 10.155 5.644 19.749 14.671 24.826l142.19 81.254c4.516 2.822 10.155 2.822 14.671 0 4.516-2.26 7.338-7.338 7.338-12.415l-0.566-370.15zm1150-509.53c-4.51-2.2604-10.15-2.2604-14.11 0-4.51 2.8219-7.33 7.333-7.33 12.41v366.77c0 3.383-1.69 6.766-5.08 9.027-3.38 1.689-6.77 1.689-10.15 0l-59.82-34.42c-4.38-2.496-9.34-3.809-14.39-3.809-5.04 0-10 1.313-14.39 3.809l-239.24 138.24c-9.03 5.077-14.67 14.671-14.67 24.826v275.92c0 10.155 5.64 19.753 14.67 24.831l239.24 138.24c4.39 2.497 9.35 3.81 14.39 3.81 5.05 0 10.01-1.313 14.39-3.81l239.25-138.24c9.03-5.078 14.67-14.671 14.67-24.831v-687.83c0-10.721-5.64-20.31-14.67-25.392l-142.75-79.56h-0.01zm-22 701.94c0 2.821-1.13 5.077-3.39 6.205l-81.82 47.396c-1.14 0.557-2.39 0.847-3.67 0.847-1.27 0-2.52-0.29-3.66-0.847l-81.82-47.396c-2.26-1.128-3.39-3.95-3.39-6.205v-94.797c0-2.822 1.13-5.078 3.39-6.206l81.82-47.401c1.14-0.557 2.39-0.847 3.66-0.847 1.28 0 2.53 0.29 3.67 0.847l81.82 47.401c2.26 1.123 3.39 3.95 3.39 6.206v94.797zm818.17-97.053c9.03-5.077 14.11-14.671 14.11-24.831v-67.144c0-10.155-5.64-19.748-14.11-24.826l-237.55-137.68c-4.39-2.496-9.34-3.808-14.39-3.808-5.04 0-10 1.312-14.39 3.808l-239.24 138.24c-9.04 5.077-14.67 14.67-14.67 24.83v275.92c0 10.155 5.63 19.748 14.67 24.825l237.55 135.42c9.03 5.077 19.75 5.077 28.21 0l143.88-80.116c4.52-2.261 7.34-7.338 7.34-12.416 0-5.077-2.82-10.155-7.34-12.415l-240.37-138.24c-4.51-2.817-7.33-7.333-7.33-12.411v-86.331c0-5.078 2.82-10.155 7.33-12.416l75.05-42.884c2.2-1.383 4.74-2.117 7.34-2.117 2.59 0 5.13 0.734 7.33 2.117l75.04 42.884c4.52 2.822 7.34 7.333 7.34 12.416v67.711c0 5.077 2.82 10.154 7.34 12.41 4.51 2.822 10.15 2.822 14.67 0l142.19-82.948z" fill="#000"/>
<path d="m2227.9 593.6c0.84-0.551 1.82-0.845 2.82-0.845 1.01 0 1.99 0.294 2.82 0.845l45.71 26.52c1.69 1.123 2.82 2.817 2.82 5.078v53.039c0 2.256-1.13 3.95-2.82 5.078l-45.71 26.52c-0.83 0.551-1.81 0.845-2.82 0.845-1 0-1.98-0.294-2.82-0.845l-45.7-26.52c-1.7-1.128-2.83-2.822-2.83-5.078v-53.039c0-2.261 1.13-3.955 2.83-5.078l45.7-26.52z" fill="#000"/>
<mask id="g" x="656" y="349" width="534" height="607" mask-type="alpha" maskUnits="userSpaceOnUse">
<path d="m937.4 353.23c-4.385-2.496-9.343-3.809-14.388-3.809s-10.003 1.313-14.388 3.809l-237.55 137.1c-9.032 5.078-14.11 14.671-14.11 24.826v274.8c0 10.155 5.644 19.748 14.11 24.826l237.55 137.12c4.385 2.496 9.343 3.809 14.388 3.809s10.003-1.313 14.388-3.809l237.56-137.12c9.02-5.078 14.11-14.671 14.11-24.826v-274.79c0-10.155-5.65-19.748-14.11-24.826l-237.56-137.11z" fill="url(#b)"/>
</mask>
<g mask="url(#g)">
<path d="m937.4 353.23c-4.385-2.496-9.343-3.809-14.388-3.809s-10.003 1.313-14.388 3.809l-237.55 137.1c-9.032 5.078-14.11 14.671-14.11 24.826v274.8c0 10.155 5.644 19.748 14.11 24.826l237.55 137.12c4.385 2.496 9.343 3.809 14.388 3.809s10.003-1.313 14.388-3.809l237.56-137.12c9.02-5.078 14.11-14.671 14.11-24.826v-274.79c0-10.155-5.65-19.748-14.11-24.826l-237.56-137.11z" fill="url(#b)"/>
<path d="m908.06 353.23-238.11 137.11c-9.037 5.083-15.237 14.681-15.237 24.836v274.8c0 6.772 2.822 12.977 7.333 18.055l267.46-458.18c-6.772-1.128-14.671-0.566-21.443 3.384v4e-3zm23.137 601.5c2.255-0.566 4.516-1.694 6.771-2.822l238.11-137.12c9.04-5.077 14.68-14.671 14.68-24.825v-274.8c0-7.333-3.39-14.671-8.47-19.748l-251.09 459.31h-5e-3z" fill="url(#f)"/>
<path d="m1175.5 490.34-238.68-137.11c-2.346-1.185-4.804-2.13-7.338-2.822l-267.46 458.18c2.216 2.705 4.891 4.998 7.904 6.772l238.68 137.12c6.771 3.95 14.67 5.078 22.003 2.817l251.1-459.3c-1.7-2.256-3.96-3.955-6.21-5.644v-5e-3z" fill="url(#e)"/>
<path d="m1190.8 789.96v-274.8c0-10.155-6.21-19.748-15.24-24.826l-238.69-137.11c-2.759-1.704-5.824-2.854-9.022-3.384l261.25 446.33c1.12-1.694 1.69-3.95 1.69-6.205l0.01-5e-3zm-520.82-299.62c-9.022 5.078-15.232 14.676-15.232 24.831v274.8c0 10.154 6.772 19.748 15.232 24.825l238.68 137.12c5.643 3.383 11.849 4.516 18.62 3.383l-255.61-465.52-1.689 0.566h-5e-3z" fill="url(#d)"/>
<path d="m1176.1 814.79c6.78-3.95 11.85-10.721 14.11-18.054l-261.82-446.89c-6.771-1.128-14.109-0.567-20.31 3.383l-236.99 136.55 255.61 466.08c3.717-0.609 7.328-1.748 10.721-3.383l238.68-137.68v-5e-3z" clip-rule="evenodd" fill="url(#c)" fill-rule="evenodd"/>
<path d="m1176.1 814.79-238.11 137.12c-3.361 1.714-6.984 2.858-10.721 3.383l4.516 8.466 264.07-152.91v-3.388l-6.77-11.288c-1.13 7.899-6.2 14.671-12.98 18.621z" clip-rule="evenodd" fill="url(#a)" fill-rule="evenodd"/>
<path d="m1176.1 814.79-238.11 137.12c-3.361 1.714-6.984 2.858-10.721 3.383l4.516 8.466 264.07-152.91v-3.388l-6.77-11.288c-1.13 7.899-6.2 14.671-12.98 18.621z" clip-rule="evenodd" fill="url(#a)" fill-rule="evenodd"/>
</g>
</g>
<defs>
<linearGradient id="b" x1="1019.8" x2="759.41" y1="455.44" y2="864.58" gradientUnits="userSpaceOnUse">
<stop offset="0"/>
<stop stop-color="#418B3D" offset=".3288"/>
<stop stop-color="#419637" offset=".6352"/>
<stop stop-color="#3FA92D" offset=".9319"/>
<stop stop-color="#3FAE2A" offset="1"/>
</linearGradient>
<linearGradient id="f" x1="1020.2" x2="761.21" y1="455.19" y2="865.8" gradientUnits="userSpaceOnUse">
<stop offset="0"/>
<stop stop-color="#418B3D" offset=".3288"/>
<stop stop-color="#419637" offset=".6352"/>
<stop stop-color="#3FA92D" offset=".9319"/>
<stop stop-color="#3FAE2A" offset="1"/>
</linearGradient>
<linearGradient id="e" x1="1016.4" x2="753.62" y1="456.39" y2="859.83" gradientUnits="userSpaceOnUse">
<stop offset="0"/>
<stop stop-color="#418B3D" offset=".3288"/>
<stop stop-color="#419637" offset=".6352"/>
<stop stop-color="#3FA92D" offset=".9319"/>
<stop stop-color="#3FAE2A" offset="1"/>
</linearGradient>
<linearGradient id="d" x1="1020.2" x2="760.92" y1="455.8" y2="866.54" gradientUnits="userSpaceOnUse">
<stop offset="0"/>
<stop stop-color="#11340F" offset=".3288"/>
<stop stop-color="#0E2D0B" offset=".6352"/>
<stop stop-color="#212420" offset=".9319"/>
<stop offset="1"/>
</linearGradient>
<linearGradient id="c" x1="1025" x2="761.85" y1="455.39" y2="858.7" gradientUnits="userSpaceOnUse">
<stop offset="0"/>
<stop offset=".3288"/>
<stop offset=".6352"/>
<stop offset=".9319"/>
<stop offset="1"/>
</linearGradient>
<linearGradient id="a" x1="1110.4" x2="1061" y1="825.48" y2="967.16" gradientUnits="userSpaceOnUse">
<stop offset="0"/>
<stop stop-color="#418B3D" offset=".3288"/>
<stop stop-color="#419637" offset=".6352"/>
<stop stop-color="#3FA92D" offset=".9319"/>
<stop stop-color="#3FAE2A" offset="1"/>
</linearGradient>
<clipPath id="h">
<rect width="2500" height="1533" fill="#fff"/>
</clipPath>
</defs>
</svg>
