<?xml version="1.0" encoding="UTF-8"?>
<svg viewBox="0 0 1773 2500" xmlns="http://www.w3.org/2000/svg">
<path d="m885.42 2493.7-721.48-200.29-160.78-1803.3h1766.7l-160.94 1803.1-723.48 200.56z"/>
<path d="m1471.1 2178.3 137.53-1540.8h-722.14v1702.9l584.61-162.07z"/>
<path d="m371.74 1306.3 19.82 221.17h494.94v-221.17h-514.76zm-39.833-447.65 20.103 221.17h534.49v-221.17h-554.59zm554.59 1022.1-0.97 0.25-246.32-66.51-15.748-176.39h-222.02l30.983 347.27 453.05 125.77 1.018-0.28v-230.11z" fill="#EBEBEB"/>
<path d="m418.94 0h267.87v112.02h-155.84v112.02h155.86v112.02h-267.88v-336.06zm321.45 0h267.88v97.41h-155.85v19.481h155.85v224.04h-267.87v-102.29h155.85v-19.481h-155.87v-219.16h7e-3zm321.46 0h267.87v97.41h-155.85v19.481h155.85v224.04h-267.87v-102.29h155.85v-19.481h-155.84v-219.16h-0.01z"/>
<path d="m1399.8 1306.3 39.93-447.65h-554.03v221.17h311.65l-20.13 226.48h-291.52v221.17h272.35l-25.68 286.85-246.68 66.58v230.09l453.42-125.66 3.32-37.36 51.98-582.28 5.39-59.39z" fill="#fff"/>
</svg>
