<?xml version="1.0" encoding="UTF-8"?>
<svg fill="none" viewBox="0 0 1771 2500" xmlns="http://www.w3.org/2000/svg">
<g clip-path="url(#a)">
<path d="m161.17 2299.1-161.17-1807.7h1771l-161.34 1807.5-725.25 201.06-723.25-200.78z" fill="#000"/>
<path d="m885.5 2346.2 586.03-162.46 137.88-1544.6h-723.91v1707z" fill="#000"/>
<path d="m885.5 1309.6h-293.38l-20.262-227.04h313.64v-221.71h-555.95l5.307 59.482 54.492 610.98h496.15v-221.71zm0 575.81-0.967 0.26-246.93-66.68-15.784-176.82h-222.56l31.062 348.11 454.16 126.08 1.021-0.28v-230.67z" fill="#EBEBEB"/>
<path d="m164.77 0.11084h112.67v111.32h103.07v-111.32h112.68v337.1h-112.67v-112.88h-103.07v112.88h-112.67v-337.1h-9e-3zm476.58 111.79h-99.185v-111.79h311.1v111.79h-99.234v225.31h-112.68l-0.01-225.31zm261.29-111.79h117.48l72.27 118.45 72.2-118.45h117.53v337.1h-112.21v-167.08l-77.52 119.86h-1.93l-77.58-119.86v167.08h-110.24v-337.1h-5e-3zm435.55 0h112.71v225.67h158.44v111.43h-271.15v-337.1z" fill="#000"/>
<path d="m884.74 1309.6v221.71h273l-25.73 287.54-247.27 66.74v230.67l454.51-125.98 3.34-37.45 52.1-583.7 5.41-59.53h-515.36zm0-448.75v221.71h535.53l4.45-49.83 10.1-112.4 5.3-59.482h-555.38z" fill="#fff"/>
</g>
<defs>
<clipPath id="a">
<rect width="1771" height="2500" fill="#fff"/>
</clipPath>
</defs>
</svg>
